<?xml version="1.0" standalone="no"?>
<!DOCTYPE svg PUBLIC "-//W3C//DTD SVG 20010904//EN"
 "http://www.w3.org/TR/2001/REC-SVG-20010904/DTD/svg10.dtd">
<svg version="1.0" xmlns="http://www.w3.org/2000/svg"
 width="1920.000000pt" height="1080.000000pt" viewBox="0 0 1920.000000 1080.000000"
 preserveAspectRatio="xMidYMid meet">

<g transform="translate(0.000000,1080.000000) scale(0.100000,-0.100000)"
fill="#000000" stroke="none">
<path d="M11942 8310 c-23 -10 -57 -31 -76 -45 -32 -24 -38 -25 -174 -25
l-142 0 0 -345 0 -345 -207 0 -208 0 -59 30 c-47 24 -72 30 -121 30 -49 0 -74
-6 -121 -30 l-59 -30 -277 0 -278 0 0 -695 0 -695 805 0 805 0 0 540 0 540
350 0 350 0 0 500 0 500 -137 0 c-130 0 -137 1 -169 25 -58 44 -114 65 -179
65 -38 0 -76 -8 -103 -20z"/>
<path d="M5061 7803 c-48 -25 -73 -76 -68 -136 5 -61 32 -98 84 -116 78 -28
150 23 160 111 13 111 -84 189 -176 141z m117 -49 c16 -19 22 -37 22 -74 0
-66 -31 -104 -85 -104 -53 0 -85 38 -85 102 0 100 86 144 148 76z"/>
<path d="M5853 7813 c-26 -5 -63 -48 -63 -72 0 -33 31 -60 86 -76 53 -15 55
-17 52 -47 -2 -26 -9 -33 -33 -40 -16 -4 -45 -4 -62 1 -21 6 -35 6 -39 -1 -12
-19 17 -32 71 -32 43 0 59 4 80 24 50 47 28 103 -50 125 -65 19 -81 48 -45 77
25 21 33 21 78 9 25 -8 32 -7 32 4 0 8 -3 16 -8 19 -13 8 -76 14 -99 9z"/>
<path d="M4280 7680 l0 -130 66 0 c60 0 68 3 96 30 24 25 29 36 23 58 -3 15
-13 32 -22 39 -14 11 -13 14 1 35 22 31 20 45 -9 73 -21 22 -33 25 -90 25
l-65 0 0 -130z m124 94 c22 -9 20 -51 -3 -64 -11 -5 -33 -10 -50 -10 -29 0
-31 2 -31 40 0 39 1 40 34 40 19 0 41 -3 50 -6z m14 -116 c18 -18 14 -56 -7
-68 -11 -5 -36 -10 -55 -10 -36 0 -36 0 -36 45 l0 45 43 0 c24 0 48 -5 55 -12z"/>
<path d="M4510 7680 l0 -130 85 0 c69 0 85 3 85 15 0 12 -14 15 -65 15 l-65 0
0 45 0 45 55 0 c42 0 55 3 55 15 0 12 -13 15 -55 15 l-55 0 0 40 0 40 60 0
c47 0 60 3 60 15 0 12 -16 15 -80 15 l-80 0 0 -130z"/>
<path d="M4761 7788 c7 -13 27 -47 45 -76 28 -43 34 -62 34 -107 0 -48 2 -55
20 -55 18 0 20 7 20 56 0 49 6 66 45 130 38 64 42 74 26 74 -13 0 -30 -19 -51
-55 -17 -30 -34 -57 -38 -59 -4 -2 -23 22 -42 55 -22 38 -40 59 -52 59 -16 0
-17 -3 -7 -22z"/>
<path d="M5290 7715 c0 -115 13 -148 66 -165 28 -10 46 -10 75 -1 56 17 69 49
69 166 0 88 -1 95 -20 95 -19 0 -20 -7 -20 -98 0 -116 -9 -136 -65 -136 -56 0
-65 20 -65 136 0 91 -1 98 -20 98 -19 0 -20 -7 -20 -95z"/>
<path d="M5560 7680 c0 -123 1 -130 20 -130 18 0 20 7 20 55 0 73 22 73 74 0
23 -32 47 -55 58 -55 15 0 12 8 -17 49 -38 52 -43 71 -21 71 21 0 46 39 46 70
0 15 -10 36 -23 48 -19 18 -35 22 -90 22 l-67 0 0 -130z m124 94 c10 -4 16
-18 16 -35 0 -33 -23 -49 -69 -49 -30 0 -31 1 -31 45 0 45 0 45 34 45 19 0 41
-3 50 -6z"/>
<path d="M6020 7680 l0 -130 85 0 c69 0 85 3 85 15 0 12 -14 15 -65 15 l-65 0
0 45 0 45 55 0 c42 0 55 3 55 15 0 12 -13 15 -55 15 l-55 0 0 40 0 40 60 0
c47 0 60 3 60 15 0 12 -16 15 -80 15 l-80 0 0 -130z"/>
<path d="M6240 7680 l0 -130 80 0 c64 0 80 3 80 15 0 12 -13 15 -60 15 l-60 0
0 115 c0 108 -1 115 -20 115 -19 0 -20 -7 -20 -130z"/>
<path d="M6450 7680 c0 -123 1 -130 20 -130 18 0 20 7 20 60 l0 60 55 0 c42 0
55 3 55 15 0 12 -13 15 -55 15 l-55 0 0 40 0 40 60 0 c47 0 60 3 60 15 0 12
-16 15 -80 15 l-80 0 0 -130z"/>
<path d="M6620 7570 c0 -13 7 -20 20 -20 13 0 20 7 20 20 0 13 -7 20 -20 20
-13 0 -20 -7 -20 -20z"/>
<path d="M9085 1963 c-10 -59 -11 -60 -44 -55 -37 5 -67 -17 -87 -65 -17 -40
-18 -105 -2 -121 15 -15 61 -15 76 0 9 9 12 9 12 0 0 -7 6 -12 14 -12 15 0 19
15 51 189 18 102 18 101 0 101 -9 0 -16 -14 -20 -37z m-36 -82 c20 -13 9 -105
-14 -132 -25 -26 -59 -21 -63 10 -6 38 8 91 29 112 21 21 28 23 48 10z"/>
<path d="M8520 1918 c-6 -40 -17 -103 -24 -140 -11 -56 -11 -68 0 -68 14 0 19
14 29 78 7 41 8 42 46 42 29 0 39 4 39 16 0 12 -6 15 -23 11 -39 -10 -50 5
-40 54 8 43 10 44 51 47 28 2 42 8 42 18 0 10 -14 14 -54 14 l-54 0 -12 -72z"/>
<path d="M8693 1975 c-3 -9 -3 -19 1 -22 8 -9 37 18 30 28 -8 14 -24 11 -31
-6z"/>
<path d="M8666 1821 c-19 -107 -19 -111 -3 -111 9 0 17 28 25 85 7 47 15 92
18 100 4 9 0 15 -9 15 -10 0 -19 -24 -31 -89z"/>
<path d="M8756 1821 c-19 -108 -20 -111 -2 -111 9 0 15 18 19 53 9 75 25 115
49 123 37 12 49 -14 37 -81 -5 -33 -12 -68 -15 -77 -4 -12 0 -18 10 -18 9 0
16 1 16 3 1 1 7 38 15 81 9 54 11 85 4 98 -11 21 -58 25 -77 6 -9 -9 -12 -9
-12 0 0 7 -6 12 -14 12 -9 0 -19 -28 -30 -89z"/>
<path d="M9173 1888 c-41 -44 -57 -126 -30 -162 10 -13 24 -17 57 -14 24 2 45
8 47 15 3 9 -6 10 -32 6 -40 -7 -55 5 -55 45 0 20 5 22 55 22 51 0 55 2 61 26
4 15 3 39 -2 53 -13 37 -70 42 -101 9z m70 -20 c17 -27 1 -48 -38 -48 -41 0
-46 19 -14 51 22 22 37 21 52 -3z"/>
<path d="M9353 1888 c-32 -35 -43 -63 -43 -105 0 -58 17 -75 70 -71 24 2 45 8
47 15 3 9 -6 10 -32 6 -40 -7 -55 5 -55 45 0 20 5 22 55 22 51 0 55 2 61 26 4
15 3 39 -2 53 -13 37 -71 42 -101 9z m70 -20 c17 -27 1 -48 -38 -48 -41 0 -46
19 -14 51 22 22 37 21 52 -3z"/>
<path d="M9501 1858 c-22 -115 -24 -148 -8 -148 10 0 17 16 21 52 11 80 30
118 60 118 16 0 26 6 26 15 0 18 -31 20 -48 3 -9 -9 -12 -9 -12 0 0 7 -6 12
-14 12 -10 0 -18 -18 -25 -52z"/>
</g>
</svg>
